<?xml version="1.0" encoding="UTF-8" standalone="no"?><!DOCTYPE svg PUBLIC "-//W3C//DTD SVG 1.1//EN" "http://www.w3.org/Graphics/SVG/1.1/DTD/svg11.dtd"><svg width="100%" height="100%" viewBox="0 0 2084 2084" version="1.1" xmlns="http://www.w3.org/2000/svg" xmlns:xlink="http://www.w3.org/1999/xlink" xml:space="preserve" xmlns:serif="http://www.serif.com/" style="fill-rule:evenodd;clip-rule:evenodd;stroke-linejoin:round;stroke-miterlimit:2;"><g id="Layer_x0020_1"><path d="M2240.499,-99.142l0,2256.617c0,38.923 -31.601,70.524 -70.524,70.524l-2256.617,0c-38.923,0 -70.524,-31.601 -70.524,-70.524l0,-2256.617c0,-38.923 31.601,-70.524 70.524,-70.524l2256.617,0c38.923,0 70.524,31.601 70.524,70.524Z" style="fill:none;"/><path d="M173.291,1048.011c-7.151,-12.788 -5.552,-21.958 0.841,-34.745c264.248,-490.975 663.018,-792.071 1165.434,-1007.44c17.078,-7.235 42.401,12.788 36.259,30.707c-74.874,217.977 -127.707,430.15 -158.33,658.138c-27.931,210.069 -35.671,427.289 -7.319,654.268c29.95,257.349 91.532,471.036 165.565,701.296c8.245,25.659 -18.004,37.269 -37.942,27.426c-523.196,-257.518 -919.778,-594.369 -1164.508,-1029.65Z" style="fill:#ee3167;"/><path d="M1731.774,1501.044c-289.318,-90.775 -548.098,-244.478 -777.348,-447.564c-15.311,-13.629 -13.545,-32.558 0.252,-45.766c227.736,-217.725 486.179,-388.59 771.796,-509.483c25.154,-10.684 45.85,10.095 38.363,38.867c-80.932,310.519 -98.767,617.42 1.094,924.994c8.245,25.659 -12.367,45.766 -34.156,38.952Z" style="fill:#0098da;fill-opacity:0.64;"/><path d="M1731.774,1501.044c-190.467,-59.731 -367.726,-146.804 -532.029,-257.265c-11.357,-175.829 -12.367,-254.068 6.141,-448.069c161.443,-119.631 335.337,-219.071 520.588,-297.479c25.154,-10.684 45.85,10.095 38.363,38.867c-80.932,310.519 -98.767,617.42 1.094,924.994c8.245,25.659 -12.367,45.766 -34.156,38.952Z" style="fill:#5abae7;"/></g></svg>