<?xml version="1.0" encoding="UTF-8" standalone="no"?><!DOCTYPE svg PUBLIC "-//W3C//DTD SVG 1.1//EN" "http://www.w3.org/Graphics/SVG/1.1/DTD/svg11.dtd"><svg width="100%" height="100%" viewBox="0 0 2084 2084" version="1.1" xmlns="http://www.w3.org/2000/svg" xmlns:xlink="http://www.w3.org/1999/xlink" xml:space="preserve" xmlns:serif="http://www.serif.com/" style="fill-rule:evenodd;clip-rule:evenodd;stroke-linejoin:round;stroke-miterlimit:2;"><rect x="-739.838" y="-302.493" width="3563.009" height="3008.763" style="fill:#fff;fill-opacity:0;"/><path d="M856.549,51.354l-10.61,6.413c-16.904,10.214 -32.819,21.655 -47.665,34.126l30.642,-21.536l260.021,0l47.269,357.924l-236.346,236.346l-236.346,164.294l0,189.433c0,132.306 69.162,254.993 182.347,323.521l248.817,150.597l-525.702,306.656l-101.387,0l-188.958,-114.373c-113.185,-68.529 -182.347,-191.215 -182.347,-323.521l0,-637.026c0,-132.346 69.202,-255.072 182.426,-323.561l567.231,-343.118c3.523,-2.138 7.047,-4.196 10.61,-6.176Z" style="fill:url(#_Radial1);fill-rule:nonzero;"/><path d="M856.549,51.354l-10.61,6.413c-16.904,10.214 -32.819,21.655 -47.665,34.126l30.642,-21.536l260.021,0l47.269,357.924l-236.346,236.346l-236.346,164.294l0,189.433c0,132.306 69.162,254.993 182.347,323.521l248.817,150.597l-525.702,306.656l-101.387,0l-188.958,-114.373c-113.185,-68.529 -182.347,-191.215 -182.347,-323.521l0,-637.026c0,-132.346 69.202,-255.072 182.426,-323.561l567.231,-343.118c3.523,-2.138 7.047,-4.196 10.61,-6.176Z" style="fill:url(#_Linear2);fill-rule:nonzero;"/><path d="M1419.821,806.474l0,211.801c0,132.306 -69.162,254.993 -182.347,323.521l-567.231,343.355c-116.035,70.231 -260.416,72.765 -378.51,7.601l554.088,335.398c120.39,72.883 271.264,72.883 391.654,0l567.231,-343.355c113.185,-68.529 182.347,-191.215 182.347,-323.521l0,-152.972l-47.269,-70.904l-519.962,-330.885l0,-0.04Z" style="fill:url(#_Radial3);fill-rule:nonzero;"/><path d="M1419.821,806.474l0,211.801c0,132.306 -69.162,254.993 -182.347,323.521l-567.231,343.355c-116.035,70.231 -260.416,72.765 -378.51,7.601l554.088,335.398c120.39,72.883 271.264,72.883 391.654,0l567.231,-343.355c113.185,-68.529 182.347,-191.215 182.347,-323.521l0,-152.972l-47.269,-70.904l-519.962,-330.885l0,-0.04Z" style="fill:url(#_Linear4);fill-rule:nonzero;"/><path d="M1804.626,400.687l-567.231,-343.118c-116.59,-70.548 -261.802,-72.725 -380.173,-6.572l-11.283,6.809c-113.264,68.489 -182.426,191.215 -182.426,323.561l0,448.306l182.426,-110.374c120.351,-72.765 271.105,-72.765 391.456,0l567.231,343.118c109.701,66.351 178.071,183.614 182.228,311.209c0.119,-4.117 0.198,-8.235 0.198,-12.391l0,-637.026c0,-132.346 -69.202,-255.072 -182.426,-323.561l0,0.04Z" style="fill:url(#_Radial5);fill-rule:nonzero;"/><path d="M1804.626,400.687l-567.231,-343.118c-116.59,-70.548 -261.802,-72.725 -380.173,-6.572l-11.283,6.809c-113.264,68.489 -182.426,191.215 -182.426,323.561l0,448.306l182.426,-110.374c120.351,-72.765 271.105,-72.765 391.456,0l567.231,343.118c109.701,66.351 178.071,183.614 182.228,311.209c0.119,-4.117 0.198,-8.235 0.198,-12.391l0,-637.026c0,-132.346 -69.202,-255.072 -182.426,-323.561l0,0.04Z" style="fill:url(#_Linear6);fill-rule:nonzero;"/><defs><radialGradient id="_Radial1" cx="0" cy="0" r="1" gradientUnits="userSpaceOnUse" gradientTransform="matrix(-553.126683,1477.046399,2576.051552,964.683878,717.504049,414.740191)"><stop offset="0" style="stop-color:#ae7fe2;stop-opacity:1"/><stop offset="0.06" style="stop-color:#ae7fe2;stop-opacity:1"/><stop offset="1" style="stop-color:#0078d4;stop-opacity:1"/></radialGradient><linearGradient id="_Linear2" x1="0" y1="0" x2="1" y2="0" gradientUnits="userSpaceOnUse" gradientTransform="matrix(-225.063423,-389.199386,389.199386,-225.063423,1032.08613,1526.637671)"><stop offset="0" style="stop-color:#114a8b;stop-opacity:1"/><stop offset="1" style="stop-color:#0078d4;stop-opacity:0"/></linearGradient><radialGradient id="_Radial3" cx="0" cy="0" r="1" gradientUnits="userSpaceOnUse" gradientTransform="matrix(1452.233277,-213.670245,-141.147132,-959.321982,404.170672,1615.652289)"><stop offset="0" style="stop-color:#d59dff;stop-opacity:1"/><stop offset="0.13" style="stop-color:#d59dff;stop-opacity:1"/><stop offset="1" style="stop-color:#5e438f;stop-opacity:1"/></radialGradient><linearGradient id="_Linear4" x1="0" y1="0" x2="1" y2="0" gradientUnits="userSpaceOnUse" gradientTransform="matrix(-241.156348,345.730672,-345.730672,-241.156348,1584.946412,947.589271)"><stop offset="0" style="stop-color:#493474;stop-opacity:1"/><stop offset="1" style="stop-color:#8c66ba;stop-opacity:0"/></linearGradient><radialGradient id="_Radial5" cx="0" cy="0" r="1" gradientUnits="userSpaceOnUse" gradientTransform="matrix(-1141.806587,-289.557696,-487.476346,1922.254909,1853.482961,1155.78099)"><stop offset="0" style="stop-color:#50e6ff;stop-opacity:1"/><stop offset="0.06" style="stop-color:#50e6ff;stop-opacity:1"/><stop offset="1" style="stop-color:#436dcd;stop-opacity:1"/></radialGradient><linearGradient id="_Linear6" x1="0" y1="0" x2="1" y2="0" gradientUnits="userSpaceOnUse" gradientTransform="matrix(355.05388,0,0,355.05388,709.633786,688.320958)"><stop offset="0" style="stop-color:#2d3f80;stop-opacity:1"/><stop offset="1" style="stop-color:#436dcd;stop-opacity:0"/></linearGradient></defs></svg>